<html>
<head>
<title>TikTok</title>
</head>
<body>

<h1>type=video/mp4</h1>
<video controls>
  <source src="https://v16-web.tiktok.com/video/tos/alisg/tos-alisg-pve-0037c001/e5664015053f4ea7bdd87877ac7d6797/?a=1988&br=3598&bt=1799&cd=0%7C0%7C1&ch=0&cr=0&cs=0&cv=1&dr=0&ds=3&er=&expire=1614010349&l=2021022210120601018905015956077701&lr=tiktok_m&mime_type=video_mp4&pl=0&policy=2&qs=0&rc=ajh0azZleGhuMzMzOzczM0ApZTczM2Y6aWU7Nzg8NztnaGdwX2MyLW1sbjRgLS1iMTRzcy0xYmAxX14xX18uNWAvXzY6Yw%3D%3D&signature=53477e7c876b65ec92ff35b1e608a828&tk=tt_webid_v2&vl=&vr=" type="video/mp4"/>
  Video not supported.
</video>

<div>
Stream #0:0(und): Video: h264 (High) (avc1 / 0x31637661), yuv420p(tv, bt709), 576x1024 [SAR 1:1 DAR 9:16], 1814 kb/s, 30 fps, 30 tbr, 15360 tbn, 60 tbc (default)
</div>
<div>
Stream #0:1(und): Audio: aac (HE-AACv2) (mp4a / 0x6134706D), 44100 Hz, stereo, fltp, 32 kb/s (default)
</div>

</body>
</html>
